<svg aria-hidden="true" style="position: absolute; width: 0; height: 0; overflow: hidden;" version="1.1" xmlns="http://www.w3.org/2000/svg" xmlns:xlink="http://www.w3.org/1999/xlink">
    <defs>
        <symbol id="star" viewBox="0 -8 70 72" version="1.1" xmlns:xlink="http://www.w3.org/1999/xlink" xmlns="http://www.w3.org/2000/svg">
            <defs>
                <path d="M58 0L58 0L58 58L0 58L0 0L58 0Z" id="path_1" />
                <path d="M29 0L37.9615 19.0924L58 22.154L43.5 37.0154L46.923 58L29 48.0924L11.077 58L14.5 37.0154L0 22.154L20.0385 19.0924L29 0Z" id="path_2" />
                <clipPath id="clip_1">
                <use xlink:href="#path_1" />
                </clipPath>
                <clipPath id="clip_2">
                <use xlink:href="#path_2" />
                </clipPath>
            </defs>
            <g id="Frame 12" clip-path="url(#clip_1)">
                <path d="M58 0L58 0L58 58L0 58L0 0L58 0Z" id="Frame-12" fill="none" stroke="none" />
                <g id="Star-5">
                <use stroke="none" fill="#D3D3D3" fill-opacity="0" xlink:href="#path_2" fill-rule="evenodd" />
                <g clip-path="url(#clip_2)">
                    <use xlink:href="#path_2" stroke-width="4" />
                </g>
                </g>
            </g>
        </symbol>
        <symbol id="quote" viewBox="0 0 60 55.77246" version="1.1" xmlns:xlink="http://www.w3.org/1999/xlink" xmlns="http://www.w3.org/2000/svg">
            <path d="M23.4783 0L0 0L0 31.8843C0 52.1738 13.0435 57.9712 23.4783 55.0723C15.6521 46.377 15.6521 40.5796 15.6521 31.8843L23.4783 31.8843L23.4783 0L23.4783 0ZM60 0L36.5217 0L36.5217 31.8843C36.5217 52.1738 49.5652 57.9712 60 55.0723C52.1738 46.377 52.1738 40.5796 52.1738 31.8843L60 31.8843L60 0L60 0Z" id="Shape" fill="#333333" fill-rule="evenodd" stroke="none" />
        </symbol>
        <symbol id="circle-arrow" viewBox="0 0 37 37" xmlns="http://www.w3.org/2000/svg">
            <circle cx="18.5" cy="18.5" r="18.5" fill="white"/>
            <path d="M12 25.4583L24.4583 13M24.4583 13V24.96M24.4583 13H12.4983" stroke="black" stroke-width="3" stroke-linecap="round" stroke-linejoin="round"/>
        </symbol>
        <symbol id="arrow" viewBox="0 0 43 43" xmlns="http://www.w3.org/2000/svg">
            <path d="M32 7L11 22L32 37" stroke="white" stroke-width="5.5" stroke-linecap="round" stroke-linejoin="round"/>
        </symbol>
        <symbol id="pexels">
            <path d="M2 0h28a2 2 0 0 1 2 2v28a2 2 0 0 1-2 2H2a2 2 0 0 1-2-2V2a2 2 0 0 1 2-2z" fill="#fff"></path>
            <path d="M13 21h3.863v-3.752h1.167a3.124 3.124 0 1 0 0-6.248H13v10zm5.863 2H11V9h7.03a5.124 5.124 0 0 1 .833 10.18V23z" fill="#000"></path>
        </symbol>
        <symbol id="youtube" viewBox="0 0 32 32">
            <path d="M31.681 9.6c0 0-0.313-2.206-1.275-3.175-1.219-1.275-2.581-1.281-3.206-1.356-4.475-0.325-11.194-0.325-11.194-0.325h-0.012c0 0-6.719 0-11.194 0.325-0.625 0.075-1.987 0.081-3.206 1.356-0.963 0.969-1.269 3.175-1.269 3.175s-0.319 2.588-0.319 5.181v2.425c0 2.587 0.319 5.181 0.319 5.181s0.313 2.206 1.269 3.175c1.219 1.275 2.819 1.231 3.531 1.369 2.563 0.244 10.881 0.319 10.881 0.319s6.725-0.012 11.2-0.331c0.625-0.075 1.988-0.081 3.206-1.356 0.962-0.969 1.275-3.175 1.275-3.175s0.319-2.587 0.319-5.181v-2.425c-0.006-2.588-0.325-5.181-0.325-5.181zM12.694 20.15v-8.994l8.644 4.513-8.644 4.481z" fill="#fff"></path>
        </symbol>
        <symbol id="linkedin" viewBox="0 0 32 32">
            <path d="M29 0h-26c-1.65 0-3 1.35-3 3v26c0 1.65 1.35 3 3 3h26c1.65 0 3-1.35 3-3v-26c0-1.65-1.35-3-3-3zM12 26h-4v-14h4v14zM10 10c-1.106 0-2-0.894-2-2s0.894-2 2-2c1.106 0 2 0.894 2 2s-0.894 2-2 2zM26 26h-4v-8c0-1.106-0.894-2-2-2s-2 0.894-2 2v8h-4v-14h4v2.481c0.825-1.131 2.087-2.481 3.5-2.481 2.488 0 4.5 2.238 4.5 5v9z" fill="#fff"></path>
        </symbol>
        <symbol id="hamburger" viewBox="0 0 36 36" fill="none" xmlns="http://www.w3.org/2000/svg">
            <g clip-path="url(#clip0_65_2)">
            <path d="M30 15.75C30.5967 15.75 31.169 15.9871 31.591 16.409C32.0129 16.831 32.25 17.4033 32.25 18C32.25 18.5967 32.0129 19.169 31.591 19.591C31.169 20.0129 30.5967 20.25 30 20.25H6C5.40326 20.25 4.83097 20.0129 4.40901 19.591C3.98705 19.169 3.75 18.5967 3.75 18C3.75 17.4033 3.98705 16.831 4.40901 16.409C4.83097 15.9871 5.40326 15.75 6 15.75H30Z" fill="white"/>
            </g>
            <defs>
            <clipPath id="clip0_65_2">
            <rect width="36" height="36" fill="white"/>
            </clipPath>
            </defs>
        </symbol>
    </defs>
</svg>